<?xml version="1.0" standalone="no"?>
<!DOCTYPE svg PUBLIC "-//W3C//DTD SVG 20010904//EN"
 "http://www.w3.org/TR/2001/REC-SVG-20010904/DTD/svg10.dtd">
<svg version="1.0" xmlns="http://www.w3.org/2000/svg"
 width="1000.000000pt" height="800.000000pt" viewBox="0 0 1000.000000 800.000000"
 preserveAspectRatio="xMidYMid meet">

<g transform="translate(0.000000,800.000000) scale(0.100000,-0.100000)"
fill="#000000" stroke="none">
<path d="M4120 6026 c-498 -205 -1292 -531 -1765 -726 -473 -194 -1116 -458
-1430 -588 -314 -129 -646 -266 -740 -304 -94 -39 -172 -72 -174 -74 -6 -6 83
-216 94 -220 6 -3 81 25 167 60 86 35 159 62 162 58 3 -3 6 -351 6 -774 l0
-768 1777 2 1776 3 97 183 c53 100 101 187 106 192 6 6 915 10 2539 10 1392 0
2599 3 2683 7 l152 6 0 575 c0 455 3 573 13 569 6 -3 82 -34 168 -70 l155 -64
43 106 c24 58 46 112 48 119 3 6 1 12 -5 12 -5 0 -448 182 -983 404 -741 307
-3729 1548 -3949 1639 l-35 15 -905 -372z m1105 -34 l190 -77 3 -667 2 -668
-377 0 c-208 0 -388 3 -401 6 l-22 6 2 661 3 661 195 78 c107 42 200 77 205
77 6 0 96 -35 200 -77z m-855 -792 l0 -610 -375 0 -375 0 0 463 0 463 368 146
c202 81 370 147 375 147 4 1 7 -273 7 -609z m1632 481 c178 -71 335 -135 351
-142 l27 -12 -2 -475 -3 -474 -344 1 c-190 1 -348 4 -353 7 -8 5 -12 1224 -3
1224 3 0 150 -58 327 -129z m1033 -415 l360 -144 3 -276 2 -276 -380 0 -380 0
0 426 c0 401 1 425 18 420 9 -3 179 -71 377 -150z m-3667 -263 l-3 -408 -65
-3 c-36 -2 -192 -1 -347 3 l-283 7 0 268 0 268 338 135 c185 75 343 136 350
136 10 1 12 -84 10 -406z m-948 -189 l0 -214 -542 0 c-332 0 -538 4 -533 9 6
5 239 100 520 211 280 111 516 205 525 210 8 5 18 6 22 4 5 -3 8 -102 8 -220z
m5794 -21 c298 -119 546 -221 551 -226 6 -6 -137 -7 -399 -3 -225 3 -476 6
-558 6 l-148 0 0 220 c0 121 3 220 7 220 4 0 250 -97 547 -217z m-4486 -380
c98 -47 142 -139 142 -300 l0 -93 -95 0 -95 0 0 95 c0 88 -2 98 -25 120 -35
36 -105 35 -134 -1 -20 -26 -21 -37 -21 -409 0 -372 1 -383 21 -409 17 -22 28
-26 69 -26 41 0 52 4 69 26 19 24 21 40 21 165 l0 139 -40 0 -40 0 0 90 0 90
136 0 135 0 -3 -247 c-3 -234 -4 -251 -26 -298 -49 -106 -125 -149 -262 -149
-102 1 -162 25 -216 87 -63 74 -65 96 -62 554 l3 408 27 52 c53 101 154 148
288 136 30 -2 79 -16 108 -30z m2974 15 c102 -30 168 -137 168 -269 l0 -70
-87 3 -88 3 -3 30 c-9 108 -28 135 -96 135 -63 0 -86 -31 -86 -114 0 -85 32
-135 172 -273 128 -125 169 -189 188 -293 29 -163 -42 -319 -166 -361 -50 -17
-178 -17 -228 0 -48 17 -111 73 -136 121 -23 45 -43 152 -38 206 l3 39 93 3
92 3 0 -59 c0 -70 15 -119 40 -132 31 -16 96 -12 120 8 18 14 24 32 28 74 7
91 -22 142 -171 289 -154 153 -188 213 -195 344 -8 147 40 249 139 299 44 21
67 26 132 26 44 0 97 -5 119 -12z m2578 2 c46 -13 96 -50 126 -94 30 -44 56
-143 52 -198 l-3 -43 -90 0 -90 0 -5 61 c-7 81 -26 104 -90 104 -67 0 -85 -23
-85 -109 0 -45 6 -79 20 -106 10 -22 76 -96 145 -165 156 -154 189 -212 197
-342 10 -151 -38 -253 -143 -304 -106 -52 -264 -34 -342 39 -51 47 -75 115
-80 220 l-4 98 93 -3 94 -3 5 -77 c6 -99 21 -118 89 -118 67 0 91 29 91 109
-1 88 -27 131 -154 256 -177 173 -209 231 -209 385 -1 77 3 104 22 146 27 62
83 118 136 138 46 17 174 20 225 6z m-8140 -90 l0 -90 -162 0 -163 0 3 -165 3
-165 130 0 130 0 -3 -87 -3 -88 -130 -5 -130 -5 0 -168 0 -167 163 0 162 0 0
-90 0 -90 -260 0 -260 0 0 605 0 605 260 0 260 0 0 -90z m447 -252 l91 -343 1
343 1 342 90 0 90 0 0 -605 0 -605 -102 0 -103 0 -110 415 -110 415 -3 -415
-2 -415 -90 0 -90 0 0 605 0 605 123 0 123 0 91 -342z m923 252 l0 -90 -165 0
-165 0 2 -162 3 -163 133 -3 133 -3 -3 -87 -3 -87 -132 -3 -133 -3 0 -169 0
-170 165 0 165 0 0 -90 0 -90 -260 0 -260 0 0 605 0 605 260 0 260 0 0 -90z
m556 63 c54 -29 100 -83 116 -135 7 -24 13 -97 13 -168 0 -149 -15 -200 -76
-255 -23 -20 -39 -38 -37 -39 1 -1 16 -10 31 -20 17 -10 40 -41 55 -74 25 -54
27 -68 32 -262 3 -113 9 -211 13 -217 6 -10 -15 -13 -96 -13 l-104 0 -7 31
c-3 17 -6 104 -7 193 0 97 -5 175 -12 196 -15 43 -63 70 -124 70 l-43 0 0
-245 0 -245 -100 0 -100 0 0 606 0 605 203 -3 c185 -3 205 -5 243 -25z m1108
-247 l70 -269 70 272 70 271 94 0 94 0 -7 -27 c-3 -16 -58 -202 -121 -414
l-114 -385 0 -192 0 -192 -95 0 -95 0 0 193 0 193 -120 404 c-66 222 -120 407
-120 412 0 5 46 7 102 6 l103 -3 69 -269z m800 247 c3 -16 33 -199 66 -408 33
-209 61 -387 63 -395 1 -8 29 163 61 380 32 217 61 407 63 423 l6 27 133 0
134 0 0 -605 0 -605 -96 0 -96 0 4 404 c2 222 2 403 1 402 -1 -1 -27 -173 -58
-381 -30 -209 -57 -390 -60 -402 -5 -22 -10 -23 -98 -23 l-92 0 -65 406 -65
406 -3 -406 -2 -406 -85 0 -85 0 0 605 0 605 134 0 134 0 6 -27z m1090 0 c9
-45 186 -1159 186 -1172 0 -7 -31 -11 -99 -11 l-98 0 -12 93 c-19 141 -5 128
-134 125 l-112 -3 -15 -105 -15 -105 -93 -3 c-92 -3 -93 -3 -87 20 3 13 46
280 96 593 49 314 92 576 94 583 3 9 41 12 144 12 l139 0 6 -27z m1451 -63 l0
-85 -97 -3 -98 -3 0 -514 0 -515 -100 0 -100 0 0 515 0 515 -100 0 -100 0 0
90 0 90 298 -2 297 -3 0 -85z m597 0 l0 -85 -161 -3 -161 -2 0 -165 0 -165
130 0 131 0 -3 -87 -3 -88 -127 -3 -128 -3 0 -169 0 -170 161 -2 161 -3 0 -85
0 -85 -261 -3 -261 -2 0 605 0 605 261 -2 261 -3 0 -85z m568 54 c45 -26 60
-42 85 -89 29 -57 30 -62 30 -204 0 -134 -2 -150 -24 -194 -14 -28 -39 -58
-57 -70 -19 -12 -34 -24 -33 -27 0 -3 14 -14 32 -25 18 -11 43 -42 57 -70 23
-47 25 -62 31 -255 3 -113 9 -213 13 -222 7 -17 0 -18 -92 -18 -86 0 -101 3
-107 18 -4 9 -11 106 -14 214 l-6 198 -27 27 c-22 22 -39 27 -88 31 l-60 4 0
-246 0 -246 -100 0 -100 0 0 598 c0 329 3 602 8 606 4 4 95 6 202 4 l195 -3
55 -31z m-7395 -1329 c33 -32 34 -75 2 -75 -14 0 -26 9 -32 23 -14 31 -39 28
-43 -5 -3 -21 8 -39 45 -79 43 -46 48 -57 48 -96 0 -35 -5 -49 -24 -64 -51
-42 -131 -5 -131 61 0 25 4 30 25 30 18 0 25 -5 25 -19 0 -22 25 -45 40 -36
21 13 10 54 -25 86 -47 45 -68 92 -61 135 12 63 86 85 131 39z m580 0 c14 -13
25 -36 25 -50 0 -20 -5 -25 -25 -25 -18 0 -25 5 -25 19 0 20 -17 31 -37 24
-23 -8 -14 -42 20 -80 76 -85 87 -134 42 -178 -48 -49 -120 -22 -132 48 -6 38
-5 39 23 35 21 -2 30 -10 34 -28 8 -34 34 -32 38 2 2 20 -7 38 -37 71 -52 56
-65 90 -51 132 18 56 84 72 125 30z m619 4 c20 -16 26 -29 26 -60 0 -35 -3
-39 -25 -39 -21 0 -25 5 -25 29 0 35 -15 48 -35 31 -11 -9 -15 -36 -15 -109 0
-101 8 -128 34 -118 18 7 23 87 6 87 -5 0 -10 11 -10 25 0 22 4 25 35 25 l35
0 0 -72 c0 -60 -4 -76 -22 -95 -28 -30 -74 -30 -105 -1 -22 20 -23 29 -23 145
0 118 1 125 25 148 30 30 64 32 99 4z m250 0 c20 -16 26 -29 26 -60 0 -35 -3
-39 -25 -39 -21 0 -25 5 -25 29 0 30 -27 51 -36 28 -2 -7 -3 -60 -2 -118 2
-84 6 -104 18 -104 10 0 16 12 18 38 3 32 7 37 28 37 22 0 24 -4 24 -45 0 -32
-6 -51 -20 -65 -27 -27 -77 -26 -107 2 -22 20 -23 29 -23 149 0 126 0 128 26
148 15 12 37 21 49 21 12 0 34 -9 49 -21z m186 1 c28 -28 32 -55 28 -175 -3
-98 -5 -108 -27 -126 -31 -25 -81 -24 -109 1 -20 19 -22 30 -22 150 0 127 0
129 26 149 34 26 78 27 104 1z m-2250 -55 c0 -63 1 -65 25 -65 24 0 25 2 25
65 l0 65 30 0 30 0 -2 -162 -3 -163 -25 0 c-24 0 -25 3 -28 68 -3 63 -4 67
-27 67 -23 0 -24 -4 -27 -67 -3 -65 -4 -68 -28 -68 l-25 0 -3 163 -2 162 30 0
30 0 0 -65z m280 40 c0 -23 -4 -25 -42 -25 -43 0 -43 0 -43 -37 0 -36 2 -38
35 -43 27 -4 35 -10 35 -25 0 -15 -8 -21 -34 -25 -32 -5 -34 -7 -35 -48 l-1
-42 43 0 c40 0 42 -1 42 -30 l0 -31 -67 3 -68 3 -3 163 -2 162 70 0 c68 0 70
-1 70 -25z m162 8 c21 -18 26 -111 7 -130 -7 -7 -8 -17 -1 -29 5 -11 12 -48
13 -84 4 -64 3 -65 -21 -65 -23 0 -25 4 -28 55 -3 56 -15 80 -38 80 -11 0 -14
-17 -14 -70 0 -68 -1 -70 -25 -70 l-25 0 0 165 0 165 57 0 c38 0 62 -5 75 -17z
m438 -8 c0 -20 -5 -25 -25 -25 l-24 0 -3 -137 -3 -138 -25 0 -25 0 -3 138 -3
137 -24 0 c-20 0 -25 5 -25 25 0 25 1 25 80 25 79 0 80 0 80 -25z m160 0 c0
-23 -4 -25 -42 -25 -43 0 -43 0 -43 -37 0 -36 2 -38 35 -43 26 -4 36 -10 38
-27 3 -19 -2 -22 -34 -25 -36 -3 -37 -4 -38 -46 l-1 -42 43 0 c40 0 42 -1 42
-30 l0 -31 -67 3 -68 3 -3 163 -2 162 70 0 c68 0 70 -1 70 -25z m350 0 c0 -21
-5 -25 -27 -25 l-28 0 0 -137 0 -138 -25 0 -25 0 -3 138 -3 137 -24 0 c-20 0
-25 5 -25 25 0 25 1 25 80 25 79 0 80 0 80 -25z m68 -137 l-3 -163 -25 0 -25
0 -3 163 -2 162 30 0 30 0 -2 -162z m128 77 l22 -80 1 83 c1 81 1 82 26 82
l25 0 -2 -162 c-3 -159 -4 -163 -25 -166 -27 -4 -35 11 -58 108 -27 113 -32
113 -31 -1 l1 -104 -25 0 -25 0 -3 163 -3 163 38 -3 37 -3 22 -80z m799 53 c3
-18 11 -64 18 -103 l13 -70 13 103 13 102 39 0 39 0 0 -165 0 -165 -25 0 c-25
0 -25 1 -26 93 l-2 92 -9 -60 c-16 -107 -21 -120 -48 -120 -24 0 -26 5 -40 90
l-15 90 -3 -93 c-3 -90 -4 -93 -25 -90 -22 3 -22 6 -25 166 l-2 162 39 0 c37
0 40 -2 46 -32z m305 12 c15 -15 20 -33 20 -78 0 -70 -18 -99 -65 -108 l-35
-6 0 -60 c0 -59 0 -59 -27 -56 l-28 3 -3 163 -2 162 60 0 c47 0 64 -4 80 -20z
m155 -2 c8 -38 45 -277 45 -294 0 -11 -8 -14 -27 -12 -22 2 -29 9 -31 31 -3
22 -8 27 -32 27 -23 0 -30 -5 -35 -30 -5 -23 -12 -30 -31 -30 -29 0 -29 -1 -4
159 31 187 24 171 70 171 33 0 40 -4 45 -22z m144 -15 c29 -114 29 -113 30
-35 l1 72 30 0 30 0 -2 -162 -3 -163 -29 0 c-29 0 -30 2 -57 100 l-27 100 -1
-102 c-1 -103 -1 -103 -26 -103 l-25 0 0 165 0 165 35 0 c31 0 35 -3 44 -37z
m171 -23 c7 -33 16 -58 20 -55 3 2 12 29 19 60 12 52 14 55 43 55 21 0 29 -4
25 -14 -26 -67 -51 -174 -56 -236 -6 -73 -7 -75 -33 -78 -27 -3 -28 -2 -28 51
0 31 -13 96 -30 153 -16 54 -30 105 -30 112 0 7 12 12 29 12 27 0 29 -4 41
-60z"/>
<path d="M2820 4070 l0 -180 53 0 c107 0 131 40 125 209 -3 98 -5 104 -31 127
-23 20 -39 24 -88 24 l-59 0 0 -180z"/>
<path d="M5900 4159 c0 -21 -60 -443 -75 -521 l-4 -28 88 0 c80 0 89 2 85 18
-3 9 -22 136 -44 281 -36 242 -50 313 -50 250z"/>
<path d="M8420 4070 l0 -180 59 0 c49 0 65 4 88 24 l28 24 0 137 c0 132 -1
137 -24 156 -17 14 -39 19 -87 19 l-64 0 0 -180z"/>
<path d="M2851 3027 c-17 -17 -15 -202 4 -217 28 -23 35 0 35 110 0 82 -3 109
-14 113 -7 3 -19 0 -25 -6z"/>
<path d="M1030 2985 c0 -42 2 -46 23 -43 19 3 22 9 22 43 0 34 -3 40 -22 43
-21 3 -23 -1 -23 -43z"/>
<path d="M3280 2980 c0 -43 3 -50 20 -50 17 0 20 7 20 50 0 43 -3 50 -20 50
-17 0 -20 -7 -20 -50z"/>
<path d="M3461 2965 c-1 -16 -4 -47 -7 -67 -6 -34 -4 -38 14 -38 18 0 20 5 15
38 -3 20 -9 51 -13 67 l-8 30 -1 -30z"/>
</g>
</svg>
